<svg width="25" height="25" viewBox="0 0 25 25" fill="none" xmlns="http://www.w3.org/2000/svg">
<path d="M24.4707 12.7058C24.4707 19.3332 19.0981 24.7058 12.4707 24.7058C5.84329 24.7058 0.470703 19.3332 0.470703 12.7058C0.470703 6.07839 5.84329 0.705811 12.4707 0.705811C19.0981 0.705811 24.4707 6.07839 24.4707 12.7058Z" fill="white"/>
<path fill-rule="evenodd" clip-rule="evenodd" d="M15.4403 4.99285C15.4403 5.72426 15.1172 6.45567 14.6613 6.9834C14.1767 7.56672 13.3408 8.00185 12.6758 8.00194C12.5998 8.00194 12.5237 7.99262 12.4763 7.98339C12.4668 7.94636 12.4478 7.8352 12.4478 7.72413C12.4478 6.9834 12.8373 6.252 13.2553 5.78907C13.7873 5.18729 14.6708 4.7336 15.4118 4.70581C15.4308 4.78918 15.4403 4.89102 15.4403 4.99285ZM18.0537 9.60012C18.0722 9.58832 18.0848 9.58022 18.0907 9.57574C17.1028 8.19629 15.6017 8.15918 15.1837 8.15909C14.5449 8.15909 13.9732 8.37996 13.4925 8.56564C13.144 8.7003 12.8433 8.81645 12.5997 8.81645C12.331 8.81645 12.0233 8.69526 11.6799 8.56001C11.2464 8.38926 10.756 8.19611 10.2153 8.19611C8.39139 8.19611 6.53889 9.66825 6.53889 12.4458C6.53889 14.1771 7.22286 16.001 8.06835 17.1769C8.79979 18.1767 9.4363 18.9915 10.3483 18.9915C10.7808 18.9915 11.0979 18.8603 11.4314 18.7224C11.8011 18.5695 12.1909 18.4082 12.7803 18.4082C13.3754 18.4082 13.7312 18.5596 14.0743 18.7056C14.394 18.8416 14.7027 18.973 15.1838 18.973C16.1812 18.973 16.8367 18.0935 17.4637 17.2139C18.1667 16.214 18.4612 15.2326 18.4707 15.1863C18.4137 15.1678 16.5042 14.4179 16.5042 12.2977C16.5042 10.5912 17.805 9.75922 18.0537 9.60012Z" fill="black"/>
</svg>
