<svg width="24" height="24" viewBox="0 0 24 24" fill="none" xmlns="http://www.w3.org/2000/svg">
<path d="M5.5 3.25C4.12109 3.25 3 4.37109 3 5.75V18.25C3 19.6289 4.12109 20.75 5.5 20.75H18C19.3789 20.75 20.5 19.6289 20.5 18.25V5.75C20.5 4.37109 19.3789 3.25 18 3.25H5.5ZM16.1641 10.1641L11.1641 15.1641C10.7969 15.5312 10.2031 15.5312 9.83984 15.1641L7.33984 12.6641C6.97266 12.2969 6.97266 11.7031 7.33984 11.3398C7.70703 10.9766 8.30078 10.9727 8.66406 11.3398L10.5 13.1758L14.8359 8.83594C15.2031 8.46875 15.7969 8.46875 16.1602 8.83594C16.5234 9.20312 16.5273 9.79687 16.1602 10.1602L16.1641 10.1641Z" fill="currentColor"/>
</svg>
