<svg width="25" height="24" viewBox="0 0 25 24" fill="none" xmlns="http://www.w3.org/2000/svg">
<path fill-rule="evenodd" clip-rule="evenodd" d="M2.125 12.0001C2.125 6.48009 6.595 2.00009 12.125 2.00009C17.645 2.00009 22.125 6.48009 22.125 12.0001C22.125 17.5301 17.645 22.0001 12.125 22.0001C6.595 22.0001 2.125 17.5301 2.125 12.0001ZM14.355 13.8301L15.975 8.71009C16.085 8.36009 15.765 8.03009 15.415 8.14009L10.295 9.74009C10.085 9.81009 9.915 9.97009 9.855 10.1801L8.255 15.3101C8.145 15.6501 8.475 15.9801 8.815 15.8701L13.915 14.2701C14.125 14.2101 14.295 14.0401 14.355 13.8301Z" fill="#0FD856"/>
</svg>
