<svg width="24" height="24" viewBox="0 0 24 24" fill="none" xmlns="http://www.w3.org/2000/svg">
<path d="M20.4219 2.84766C19.5664 1.99219 18.1836 1.99219 17.3281 2.84766L16.1523 4.01953L19.9766 7.84375L21.1523 6.66797C22.0078 5.8125 22.0078 4.42969 21.1523 3.57422L20.4219 2.84766ZM8.73438 11.4414C8.49609 11.6797 8.3125 11.9727 8.20703 12.2969L7.05078 15.7656C6.9375 16.1016 7.02734 16.4727 7.27734 16.7266C7.52734 16.9805 7.89844 17.0664 8.23828 16.9531L11.707 15.7969C12.0273 15.6914 12.3203 15.5078 12.5625 15.2695L19.0977 8.73047L15.2695 4.90234L8.73438 11.4414ZM5.75 4.5C3.67969 4.5 2 6.17969 2 8.25V18.25C2 20.3203 3.67969 22 5.75 22H15.75C17.8203 22 19.5 20.3203 19.5 18.25V14.5C19.5 13.8086 18.9414 13.25 18.25 13.25C17.5586 13.25 17 13.8086 17 14.5V18.25C17 18.9414 16.4414 19.5 15.75 19.5H5.75C5.05859 19.5 4.5 18.9414 4.5 18.25V8.25C4.5 7.55859 5.05859 7 5.75 7H9.5C10.1914 7 10.75 6.44141 10.75 5.75C10.75 5.05859 10.1914 4.5 9.5 4.5H5.75Z" fill="currentColor"/>
</svg>
