<svg width="24" height="24" viewBox="0 0 24 24" fill="none" xmlns="http://www.w3.org/2000/svg">
<path d="M21 9V15C21 16.8856 21 17.8284 20.4142 18.4142C19.8284 19 18.8856 19 17 19H7C5.11438 19 4.17157 19 3.58579 18.4142C3 17.8284 3 16.8856 3 15V9M21 9C21 7.11438 21 6.17157 20.4142 5.58579C19.8284 5 18.8856 5 17 5H7C5.11438 5 4.17157 5 3.58579 5.58579C3 6.17157 3 7.11438 3 9M21 9L12.8123 12.639C12.2951 12.8688 11.7049 12.8688 11.1877 12.639L3 9" stroke="currentColor"  stroke-width="1.6"/>
</svg>
