<svg width="24" height="24" viewBox="0 0 24 24" fill="none" xmlns="http://www.w3.org/2000/svg">
<path fill-rule="evenodd" clip-rule="evenodd" d="M15.9202 12.7988C15.9725 12.5407 16 12.2736 16 12C16 9.79086 14.2091 8 12 8C11.7264 8 11.4593 8.02746 11.2012 8.07977L12.8931 9.77167C13.5002 10.0152 13.9848 10.4998 14.2283 11.1069L15.9202 12.7988ZM9.83719 10.9584C9.68519 11.2735 9.6 11.6268 9.6 12C9.6 13.3255 10.6745 14.4 12 14.4C12.3732 14.4 12.7265 14.3148 13.0416 14.1628L14.212 15.3332C13.5784 15.7545 12.8179 16 12 16C9.79086 16 8 14.2091 8 12C8 11.1821 8.24547 10.4216 8.66676 9.78799L9.83719 10.9584Z" fill="currentColor"/>
<path fill-rule="evenodd" clip-rule="evenodd" d="M16.3729 17.4944L15.1976 16.3192C14.1881 16.8565 13.1075 17.2 11.9998 17.2C10.4156 17.2 8.88672 16.4974 7.5421 15.53C6.20379 14.5672 5.11543 13.3902 4.42924 12.5571C4.22049 12.3037 4.12103 12.1796 4.06209 12.0808C4.02775 12.0233 4.02875 12.0103 4.02936 12.0026L4.02949 12L4.02936 11.9974C4.02875 11.9897 4.02775 11.9767 4.06209 11.9192C4.12103 11.8204 4.22049 11.6963 4.42924 11.4429C5.09617 10.6332 6.14301 9.49864 7.42999 8.55156L6.28703 7.4086C4.94552 8.43003 3.87475 9.59945 3.19423 10.4257C3.17136 10.4534 3.14799 10.4815 3.12431 10.51C2.80589 10.8929 2.42949 11.3454 2.42949 12C2.42949 12.6546 2.80589 13.1071 3.12431 13.49L3.1244 13.4901C3.14806 13.5185 3.17139 13.5466 3.19423 13.5743C3.92813 14.4654 5.11592 15.7556 6.60767 16.8288C8.09311 17.8975 9.94825 18.8 11.9998 18.8C13.6055 18.8 15.0909 18.2471 16.3729 17.4944ZM8.9594 5.83833C9.9022 5.44816 10.924 5.2 11.9998 5.2C14.0513 5.2 15.9064 6.10248 17.3919 7.17119C18.8836 8.24445 20.0714 9.53464 20.8053 10.4257C20.8282 10.4534 20.8515 10.4815 20.8752 10.51C21.1936 10.8928 21.57 11.3454 21.57 12C21.57 12.6546 21.1936 13.1071 20.8752 13.49C20.8515 13.5185 20.8282 13.5466 20.8053 13.5743C20.3211 14.1622 19.6394 14.9237 18.8032 15.6821L17.6704 14.5493C18.4566 13.8431 19.1056 13.1212 19.5703 12.5571C19.779 12.3037 19.8785 12.1796 19.9374 12.0808C19.9718 12.0233 19.9708 12.0103 19.9702 12.0026L19.97 12L19.9702 11.9974C19.9708 11.9897 19.9718 11.9767 19.9374 11.9192C19.8785 11.8204 19.779 11.6963 19.5703 11.4429C18.8841 10.6098 17.7957 9.43284 16.4574 8.46998C15.1128 7.50259 13.584 6.8 11.9998 6.8C11.3916 6.8 10.7915 6.90355 10.207 7.08588L8.9594 5.83833Z" fill="currentColor"/>
<path d="M5 2L21 18" stroke="currentColor" stroke-width="1.6"/>
</svg>
