<svg width="25" height="25" viewBox="0 0 25 25" fill="none" xmlns="http://www.w3.org/2000/svg">
<path d="M24.9453 12.7058C24.9453 19.3332 19.5727 24.7058 12.9453 24.7058C6.3179 24.7058 0.945312 19.3332 0.945312 12.7058C0.945312 6.07839 6.3179 0.705811 12.9453 0.705811C19.5727 0.705811 24.9453 6.07839 24.9453 12.7058Z" fill="white"/>
<path d="M17.616 16.1742L18.148 12.7053H14.8197V10.4542C14.8197 9.50523 15.2846 8.58018 16.7754 8.58018H18.2887V5.62694C18.2887 5.62694 16.9153 5.39256 15.6023 5.39256C12.8611 5.39256 11.0695 7.05387 11.0695 10.0615V12.7053H8.02245V16.1742H11.0695V24.56C11.6805 24.6559 12.3074 24.7058 12.9453 24.7058C13.5832 24.7058 14.2087 24.6559 14.8197 24.56V16.1742H17.616Z" fill="#1877F2"/>
</svg>
