<svg width="25" height="25" viewBox="0 0 25 25" fill="none" xmlns="http://www.w3.org/2000/svg">
<path d="M24.4116 12.7058C24.4116 19.3332 19.039 24.7058 12.4116 24.7058C5.7842 24.7058 0.411621 19.3332 0.411621 12.7058C0.411621 6.07839 5.7842 0.705811 12.4116 0.705811C19.039 0.705811 24.4116 6.07839 24.4116 12.7058Z" fill="white"/>
<path d="M19.9116 12.8858C19.9116 12.3591 19.8654 11.8591 19.7862 11.3725H12.3299V14.3791H16.5991C16.4078 15.3658 15.8469 16.1991 15.0155 16.7658V18.7658H17.5625C19.0538 17.3725 19.9116 15.3191 19.9116 12.8858Z" fill="#4285F4"/>
<path d="M12.3299 20.7058C14.4678 20.7058 16.256 19.9858 17.5625 18.7658L15.0155 16.7658C14.3029 17.2458 13.3988 17.5391 12.3299 17.5391C10.2645 17.5391 8.51592 16.1325 7.88906 14.2325H5.26283V16.2925C6.56275 18.9058 9.23516 20.7058 12.3299 20.7058Z" fill="#34A853"/>
<path d="M7.88906 14.2325C7.72409 13.7525 7.63831 13.2391 7.63831 12.7058C7.63831 12.1725 7.73069 11.6591 7.88906 11.1791V9.11914H5.26283C4.72175 10.1991 4.41162 11.4125 4.41162 12.7058C4.41162 13.9991 4.72175 15.2125 5.26283 16.2925L7.88906 14.2325Z" fill="#FBBC05"/>
<path d="M12.3299 7.87248C13.4978 7.87248 14.5404 8.27914 15.3652 9.07248L17.6219 6.79248C16.256 5.49914 14.4678 4.70581 12.3299 4.70581C9.23516 4.70581 6.56275 6.50581 5.26283 9.11914L7.88906 11.1791C8.51592 9.27914 10.2645 7.87248 12.3299 7.87248Z" fill="#EA4335"/>
</svg>
