<svg width="24" height="24" viewBox="0 0 24 24" fill="none" xmlns="http://www.w3.org/2000/svg">
<path d="M2 5.21729C2 3.99778 2.99778 3 4.21729 3H9.77162V7.44568C9.77162 8.05543 10.2705 8.55432 10.8803 8.55432H15.3259V9.89579C12.765 10.6164 10.8803 12.9778 10.8803 15.7716C10.8803 17.8226 11.8891 19.6408 13.4412 20.7494C13.3304 20.7716 13.2195 20.7716 13.1086 20.7716H4.21729C2.9867 20.7716 2 19.7738 2 18.5543V5.21729Z" fill="currentColor"/>
<path d="M15.3257 7.44568H10.8911V3L15.3257 7.44568Z" fill="currentColor"/>
<path d="M21.3237 13.2772C20.4257 11.7251 18.7849 10.7827 16.9889 10.7827C15.204 10.7827 13.5521 11.7362 12.6652 13.2772C11.7672 14.8293 11.7672 16.7251 12.6652 18.2772C13.5632 19.8182 15.204 20.7716 16.9889 20.7716C18.7739 20.7716 20.4257 19.8182 21.3237 18.2772C22.2217 16.7362 22.2217 14.8182 21.3237 13.2772ZM19.2617 17.2794C19.1175 17.49 18.8293 17.5566 18.6076 17.4124L16.7339 16.1597C16.6009 16.071 16.5233 15.9268 16.5233 15.7716V13.122C16.5233 12.867 16.7339 12.6563 16.9889 12.6563C17.2439 12.6563 17.4546 12.867 17.4546 13.122V15.5277L19.1175 16.6364C19.3503 16.7805 19.4058 17.0687 19.2617 17.2794Z" fill="currentColor"/>
</svg>
