<svg width="24" height="24" viewBox="0 0 24 24" fill="none" xmlns="http://www.w3.org/2000/svg">
<path fill-rule="evenodd" clip-rule="evenodd" d="M3.35288 8.44909C3 9.19275 3 10.0388 3 11.7308V17.0152C3 19.3651 3 20.54 3.75315 21.27C4.46838 21.9632 5.59756 21.9981 7.78571 21.9999V15.7691C7.78571 14.4993 8.83871 13.5229 10.0714 13.5229H13.9286C15.1613 13.5229 16.2143 14.4993 16.2143 15.7691V21.9999C18.4024 21.9981 19.5316 21.9632 20.2468 21.27C21 20.54 21 19.3651 21 17.0152V11.7308C21 10.0388 21 9.19275 20.6471 8.44909C20.2942 7.70544 19.6315 7.15485 18.3061 6.05369L17.0204 4.98552C14.6247 2.99517 13.4268 2 12 2C10.5732 2 9.3753 2.99517 6.97961 4.98552L5.6939 6.05369C4.36847 7.15485 3.70576 7.70544 3.35288 8.44909ZM14.2143 22V15.7691C14.2143 15.6623 14.116 15.5229 13.9286 15.5229H10.0714C9.88398 15.5229 9.78571 15.6623 9.78571 15.7691V22H14.2143Z" fill="currentColor" />
</svg>
