<svg width="24" height="24" viewBox="0 0 24 24" fill="none" xmlns="http://www.w3.org/2000/svg">
<path d="M21.7668 6.05469L19.5285 2.51172C19.3293 2.19531 18.9738 2 18.5949 2H4.65738C4.27848 2 3.92301 2.19531 3.72379 2.51172L1.4816 6.05469C0.325353 7.88281 1.34879 10.4258 3.50895 10.7188C3.6652 10.7383 3.82535 10.75 3.9816 10.75C5.00113 10.75 5.90738 10.3047 6.52848 9.61719C7.14957 10.3047 8.05582 10.75 9.07535 10.75C10.0949 10.75 11.0011 10.3047 11.6222 9.61719C12.2433 10.3047 13.1496 10.75 14.1691 10.75C15.1925 10.75 16.0949 10.3047 16.716 9.61719C17.341 10.3047 18.2433 10.75 19.2629 10.75C19.423 10.75 19.5793 10.7383 19.7355 10.7188C21.9035 10.4297 22.9308 7.88672 21.7707 6.05469H21.7668ZM19.8957 11.957H19.8918C19.6847 11.9844 19.4738 12 19.2589 12C18.7746 12 18.3097 11.9258 17.8761 11.793V17H5.37613V11.7891C4.93863 11.9258 4.46988 12 3.98551 12C3.77067 12 3.55582 11.9844 3.34879 11.957H3.34488C3.18473 11.9336 3.02848 11.9062 2.87613 11.8672V19.5C2.87613 20.8789 3.99723 22 5.37613 22H17.8761C19.255 22 20.3761 20.8789 20.3761 19.5V11.8672C20.2199 11.9062 20.0636 11.9375 19.8957 11.957Z" fill="currentColor" />
</svg>
