<svg width="101" height="24" viewBox="0 0 101 24" fill="none" xmlns="http://www.w3.org/2000/svg">
<path d="M25.6979 7.89844C26.6671 6.59922 28.2138 5.87743 29.9255 5.79494C30.1317 5.77431 30.3173 5.95992 30.3173 6.14552V10.3525C30.3173 10.5587 30.1317 10.7237 29.9255 10.7031C28.7294 10.6412 27.6158 10.9093 26.6465 11.5692C25.5741 12.291 25.0586 13.4665 25.0586 15.137V22.7054C25.0586 23.0973 24.7492 23.386 24.378 23.386H21.2846C20.8928 23.386 20.6041 23.0766 20.6041 22.7054V6.82606C20.6041 6.43423 20.9134 6.14552 21.2846 6.14552H24.378C24.7698 6.14552 25.0586 6.45486 25.0586 6.82606V7.69221C25.0586 8.04279 25.5123 8.16653 25.6979 7.89844Z" fill="#0068FF"/>
<path d="M46.0936 6.1249H49.1045C49.4963 6.1249 49.8262 6.45486 49.8262 6.84669V22.6848C49.8262 23.0766 49.4963 23.4066 49.1045 23.4066H46.0936C45.7017 23.4066 45.3718 23.0766 45.3718 22.6848V22.293C45.3718 21.9836 44.9799 21.8187 44.7531 22.0249C43.4745 23.2622 41.8041 23.8809 39.7212 23.8809C37.4115 23.8809 35.4317 23.0148 33.7819 21.2618C32.1733 19.4883 31.3278 17.3229 31.3278 14.7657C31.3278 12.2085 32.1527 10.0638 33.7819 8.31089C35.4317 6.55797 37.4115 5.65058 39.7212 5.65058C41.8041 5.65058 43.4539 6.26925 44.7531 7.50661C44.9799 7.71283 45.3718 7.54785 45.3718 7.23851V6.84669C45.3718 6.45486 45.7017 6.1249 46.0936 6.1249ZM40.5667 19.6327C41.9484 19.6327 43.0827 19.179 43.9901 18.2922C44.9181 17.3642 45.3718 16.1887 45.3718 14.7657C45.3718 13.3428 44.9181 12.1673 43.9901 11.2805C43.0827 10.3525 41.9484 9.89882 40.5667 9.89882C39.185 9.89882 38.0508 10.3525 37.1434 11.2805C36.236 12.1879 35.8029 13.3634 35.8029 14.7657C35.8029 16.1887 36.2566 17.3642 37.1434 18.2922C38.0508 19.1996 39.185 19.6327 40.5667 19.6327Z" fill="#0068FF"/>
<path d="M78.904 12.7654V22.6848C78.904 23.0766 78.5741 23.4066 78.1822 23.4066H75.1714C74.7795 23.4066 74.4496 23.0766 74.4496 22.6848V13.0747C74.4496 10.9918 73.3772 9.79571 71.5418 9.79571C69.5002 9.79571 68.3247 11.1774 68.3247 13.714V22.6848C68.3247 23.0766 67.9947 23.4066 67.6029 23.4066H64.592C64.2002 23.4066 63.8702 23.0766 63.8702 22.6848V13.0747C63.8702 10.9918 62.7978 9.79571 60.9624 9.79571C59.0033 9.79571 57.7041 11.1774 57.7041 13.714V22.6848C57.7041 23.0766 57.3741 23.4066 56.9823 23.4066H53.9714C53.5795 23.4066 53.2496 23.0766 53.2496 22.6848V6.84669C53.2496 6.45486 53.5795 6.1249 53.9714 6.1249H56.9823C57.3741 6.1249 57.7041 6.45486 57.7041 6.84669V6.9498C57.7041 7.27976 58.0959 7.42412 58.3227 7.19727C59.3332 6.14552 60.7356 5.62996 62.5091 5.62996C64.4476 5.62996 65.9325 6.33112 66.943 7.71283C67.0873 7.89844 67.3554 7.91906 67.4998 7.73346C68.634 6.35174 70.2632 5.62996 72.3461 5.62996C76.3468 5.65058 78.904 8.45525 78.904 12.7654Z" fill="#0068FF"/>
<path d="M98.3305 8.80583C99.9803 10.5175 100.805 12.5798 100.805 15.0545C100.805 17.5292 99.9803 19.6327 98.3305 21.3443C96.7219 23.056 94.7009 23.8809 92.3912 23.8809C90.3083 23.8809 88.6585 23.3035 87.4005 22.0867C87.1737 21.8805 86.8025 22.0455 86.8025 22.3548V22.6848C86.8025 23.0766 86.4725 23.4066 86.0807 23.4066H83.0698C82.678 23.4066 82.348 23.0766 82.348 22.6848V0.721789C82.348 0.329961 82.678 0 83.0698 0H86.0807C86.4725 0 86.8025 0.329961 86.8025 0.721789V7.75408C86.8025 8.06342 87.1737 8.2284 87.4005 8.02217C88.6585 6.82606 90.3289 6.22801 92.3912 6.22801C94.7215 6.22801 96.7219 7.09416 98.3305 8.80583ZM91.5663 19.777C92.948 19.777 94.0822 19.344 94.9896 18.4778C95.9176 17.5704 96.3713 16.4362 96.3713 15.0545C96.3713 13.6727 95.9176 12.5385 94.9896 11.6724C94.0822 10.765 92.948 10.3319 91.5663 10.3319C90.1846 10.3319 89.0503 10.765 88.1429 11.6724C87.2355 12.5385 86.8025 13.6727 86.8025 15.0545C86.8025 16.4362 87.2562 17.5704 88.1429 18.4778C89.0503 19.344 90.1846 19.777 91.5663 19.777Z" fill="#0068FF"/>
<path d="M18.1088 7.71283C17.3664 4.47509 14.7679 2.43346 11.2208 2.30973C8.10683 2.20661 4.99282 2.2891 1.87882 2.24786C0.99205 2.22724 0.806447 2.53657 0.806447 3.36147C0.847692 6.51673 0.82707 9.67198 0.82707 12.8272C0.82707 16.0443 0.847692 19.2615 0.806447 22.4786C0.785825 23.1797 1.01267 23.4478 1.73446 23.4066C2.6831 23.3653 3.63174 23.3653 4.58037 23.4066C5.26092 23.4272 5.44652 23.1591 5.44652 22.4992C5.40528 21.1381 5.46714 19.7976 5.4259 18.4366C5.40528 17.7973 5.59088 17.5498 6.27142 17.5704C7.79749 17.6117 9.32356 17.6117 10.829 17.5498C16.6652 17.3436 19.2636 12.7035 18.1088 7.71283ZM13.6337 9.98131C13.613 10.6 13.5099 11.1362 13.2831 11.5899C13.2625 11.6105 13.2625 11.6311 13.2418 11.6517C13.0562 11.9817 12.8294 12.2704 12.5407 12.4973C12.5201 12.5179 12.5201 12.5179 12.4994 12.5179C12.0045 12.9303 11.3446 13.1572 10.6434 13.1572H6.02395C5.54963 13.1572 5.4259 12.9097 5.44652 12.4766C5.46714 11.6311 5.4259 10.7856 5.46714 9.94007C5.48777 9.09454 5.15781 8.51711 4.31228 8.43462C4.00294 8.39338 3.83796 8.31089 3.75547 8.18715C3.73485 8.16653 3.73485 8.08404 3.73485 8.06342V7.01167C3.77609 6.70233 4.06481 6.68171 4.35353 6.68171H10.664C11.3652 6.68171 12.0251 6.92918 12.5201 7.34163C12.5407 7.36225 12.5407 7.36225 12.5613 7.36225C12.8088 7.54785 13.015 7.79532 13.18 8.06342C13.18 8.08404 13.2006 8.08404 13.2006 8.08404C13.4893 8.53773 13.6543 9.07392 13.6543 9.65135L13.6337 9.98131Z" fill="#0068FF"/>
</svg>
