<svg width="24" height="24" viewBox="0 0 24 24" fill="none" xmlns="http://www.w3.org/2000/svg">
<path fill-rule="evenodd" clip-rule="evenodd" d="M5.51027 16.3277C5.83229 16.8107 6.20877 17.2585 6.63424 17.6618C7.72837 18.6988 9.09958 19.3966 10.582 19.6706C12.0644 19.9447 13.5944 19.7833 14.987 19.206C16.3796 18.6287 17.575 17.6602 18.4287 16.4177C19.2824 15.1753 19.7578 13.712 19.7973 12.205C19.8368 10.698 19.4388 9.21187 18.6513 7.92636C17.8639 6.64085 16.7208 5.61107 15.3604 4.9616C14.4597 4.53161 13.4893 4.28053 12.5025 4.21682L12.9463 5.87327C13.5411 5.96512 14.1223 6.14355 14.6711 6.4055C15.7524 6.92175 16.661 7.74029 17.2869 8.7621C17.9129 9.78392 18.2292 10.9652 18.1978 12.1631C18.1664 13.3609 17.7886 14.524 17.11 15.5117C16.4314 16.4993 15.4812 17.2691 14.3743 17.728C13.2673 18.1869 12.0512 18.3151 10.8728 18.0973C9.69454 17.8795 8.6046 17.3248 7.7349 16.5005C7.53104 16.3073 7.34133 16.1012 7.16672 15.8839L5.51027 16.3277Z" fill="currentColor"/>
<path d="M5.91239 4.06647C6.68924 3.47037 7.54796 2.99272 8.46042 2.64739C8.87978 2.48868 9.08946 2.40932 9.28694 2.51053C9.48442 2.61174 9.54649 2.84338 9.67063 3.30667L11.7412 11.0341C11.8632 11.4894 11.9242 11.7171 11.8206 11.8964C11.7171 12.0758 11.4894 12.1368 11.0341 12.2588L3.30667 14.3294C2.84338 14.4535 2.61174 14.5156 2.42535 14.3952C2.23896 14.2747 2.20284 14.0535 2.13061 13.6109C1.97344 12.6481 1.95774 11.6656 2.08555 10.6947C2.25696 9.39275 2.68314 8.13728 3.33975 7C3.99636 5.86272 4.87054 4.8659 5.91239 4.06647Z" stroke="currentColor" stroke-width="1.6"/>
</svg>
