<svg width="24" height="24" viewBox="0 0 24 24" fill="none" xmlns="http://www.w3.org/2000/svg">
<path d="M22 9.14286V7.71429C22 6.38575 22 5.72149 21.8864 5.17649C21.5782 3.69752 20.6797 2.54232 19.5294 2.14603C19.1055 2 18.5889 2 17.5556 2M2 9.14286L2 7.71429C2 6.38575 2 5.72149 2.11358 5.17649C2.4218 3.69752 3.3203 2.54232 4.4706 2.14603C4.89449 2 5.41114 2 6.44444 2M22 14.8571V16.2857C22 17.6142 22 18.2785 21.8864 18.8235C21.5782 20.3025 20.6797 21.4577 19.5294 21.854C19.1055 22 18.5889 22 17.5556 22M2 14.8571L2 16.2857C2 17.6142 2 18.2785 2.11358 18.8235C2.4218 20.3025 3.3203 21.4577 4.4706 21.854C4.89449 22 5.41114 22 6.44444 22M12 16.2857V7.71429M7.55556 14.8571V9.14286M16.4444 14.8571V9.14286" stroke="currentColor" stroke-width="2" stroke-linecap="round" stroke-linejoin="round"/>
</svg>
