<svg width="40" height="40" viewBox="0 0 40 40" fill="none" xmlns="http://www.w3.org/2000/svg">
<g clip-path="url(#clip0_3595_34009)">
<path opacity="0.4" d="M20.0615 33.9824C20.0615 32.8927 20.0615 31.7853 20.0615 30.6252C23.489 30.4846 26.3365 29.1312 28.4457 26.3716C29.9222 24.4382 30.5901 22.2059 30.5374 19.7979C30.3967 14.6127 26.6001 9.74388 20.0615 9.39234C20.0615 8.30257 20.0615 7.21281 20.0615 6C24.7897 6.17577 28.6391 8.0565 31.3283 11.9234C34.5625 16.5989 34.8613 21.5907 32.2423 26.6353C29.8519 31.2404 24.7721 34.2109 20.0615 33.9824Z" fill="#0068FF"/>
<path d="M17.1438 28.3753C16.4934 27.7074 15.7552 26.9516 14.9642 26.1606C16.3704 24.8248 17.8117 23.4713 19.253 22.1179C19.1827 22.0125 19.1299 21.907 19.0596 21.8015C14.7357 21.8015 10.3942 21.8015 6 21.8015C6 20.5887 6 19.499 6 18.2862C10.3591 18.2862 14.7006 18.2862 19.0245 18.2862C19.0596 18.2159 19.0948 18.128 19.1475 18.0577C17.7062 16.7218 16.2649 15.386 14.806 14.015C15.7552 13.101 16.5286 12.3452 17.2492 11.6421C20.0088 14.4368 22.8035 17.2491 25.5279 19.9911C22.8387 22.698 20.0088 25.5103 17.1438 28.3753Z" fill="#0068FF"/>
</g>
<defs>
<clipPath id="clip0_3595_34009">
<rect width="27.9824" height="28" fill="white" transform="translate(6 6)"/>
</clipPath>
</defs>
</svg>
