<svg width="25" height="24" viewBox="0 0 25 24" fill="none" xmlns="http://www.w3.org/2000/svg">
<path fill-rule="evenodd" clip-rule="evenodd" d="M21.0273 13.5801C21.385 13.7701 21.661 14.0701 21.8551 14.3701C22.2333 14.9901 22.2026 15.7501 21.8347 16.4201L21.1193 17.6201C20.7412 18.2601 20.036 18.6601 19.3105 18.6601C18.9528 18.6601 18.5542 18.5601 18.2272 18.3601C17.9615 18.1901 17.6549 18.1301 17.3279 18.1301C16.3161 18.1301 15.4679 18.9601 15.4372 19.9501C15.4372 21.1001 14.497 22.0001 13.3218 22.0001H11.9319C10.7465 22.0001 9.80625 21.1001 9.80625 19.9501C9.78581 18.9601 8.93759 18.1301 7.92585 18.1301C7.58861 18.1301 7.28202 18.1901 7.02653 18.3601C6.6995 18.5601 6.29072 18.6601 5.94325 18.6601C5.20745 18.6601 4.50229 18.2601 4.12417 17.6201L3.41902 16.4201C3.0409 15.7701 3.02046 14.9901 3.39858 14.3701C3.56209 14.0701 3.86868 13.7701 4.21615 13.5801C4.50229 13.4401 4.68625 13.2101 4.85998 12.9401C5.37096 12.0801 5.06437 10.9501 4.19571 10.4401C3.18397 9.87012 2.85694 8.60012 3.43946 7.61012L4.12417 6.43012C4.71691 5.44012 5.98413 5.09012 7.00609 5.67012C7.89519 6.15012 9.05 5.83012 9.5712 4.98012C9.73472 4.70012 9.82669 4.40012 9.80625 4.10012C9.78581 3.71012 9.89823 3.34012 10.0924 3.04012C10.4705 2.42012 11.1552 2.02012 11.9013 2.00012H13.3422C14.0985 2.00012 14.7832 2.42012 15.1613 3.04012C15.3453 3.34012 15.4679 3.71012 15.4372 4.10012C15.4168 4.40012 15.5088 4.70012 15.6723 4.98012C16.1935 5.83012 17.3483 6.15012 18.2476 5.67012C19.2594 5.09012 20.5368 5.44012 21.1193 6.43012L21.804 7.61012C22.3968 8.60012 22.0697 9.87012 21.0478 10.4401C20.1791 10.9501 19.8725 12.0801 20.3937 12.9401C20.5572 13.2101 20.7412 13.4401 21.0273 13.5801ZM9.73472 12.0101C9.73472 13.5801 11.0326 14.8301 12.6371 14.8301C14.2415 14.8301 15.5088 13.5801 15.5088 12.0101C15.5088 10.4401 14.2415 9.18012 12.6371 9.18012C11.0326 9.18012 9.73472 10.4401 9.73472 12.0101Z" fill="#0FD856"/>
</svg>
