<svg width="24" height="24" viewBox="0 0 24 24" fill="none" xmlns="http://www.w3.org/2000/svg">
<path d="M7.88556 20.9348C7.63555 21.2053 7.28718 21.3611 6.91832 21.3611C6.54946 21.3611 6.20109 21.2053 5.95109 20.9348L2.34445 17.0003C1.85673 16.4675 1.88952 15.6355 2.42642 15.1478C2.96332 14.6601 3.7912 14.6929 4.27892 15.2298L5.60682 16.6765V4.3115C5.60682 3.58608 6.1929 3 6.91832 3C7.64375 3 8.22983 3.58608 8.22983 4.3115V16.6765L9.55773 15.2257C10.0454 14.6929 10.8774 14.656 11.4102 15.1437C11.943 15.6314 11.9799 16.4634 11.4922 16.9962L7.88556 20.9307V20.9348ZM13.4758 14.8035C13.4758 14.0781 14.0619 13.492 14.7874 13.492H20.0334C20.5621 13.492 21.0416 13.8117 21.2465 14.3035C21.4514 14.7953 21.3367 15.3568 20.9637 15.7339L17.9555 18.7381H20.0334C20.7588 18.7381 21.3449 19.3241 21.3449 20.0496C21.3449 20.775 20.7588 21.3611 20.0334 21.3611H14.7874C14.2587 21.3611 13.7791 21.0414 13.5742 20.5496C13.3693 20.0578 13.484 19.4963 13.857 19.1192L16.8653 16.115H14.7874C14.0619 16.115 13.4758 15.529 13.4758 14.8035ZM17.4104 3C17.9063 3 18.3612 3.27869 18.5825 3.72543L21.2055 8.97145L21.8613 10.283C22.1851 10.9305 21.9228 11.7174 21.2752 12.0412C20.6276 12.365 19.8407 12.1027 19.517 11.4551L19.2219 10.869H15.5988L15.3038 11.4551C14.98 12.1027 14.1931 12.365 13.5455 12.0412C12.898 11.7174 12.6357 10.9305 12.9594 10.283L13.6152 8.97145L16.2382 3.72543C16.4595 3.27869 16.9145 3 17.4104 3ZM16.5825 8.90177H18.2383L17.4104 7.246L16.5825 8.90177Z" fill="currentColor"/>
</svg>
