<svg width="24" height="24" viewBox="0 0 24 24" fill="none" xmlns="http://www.w3.org/2000/svg">
<path d="M13 4.875C8.51172 4.875 4.875 8.51172 4.875 13V14.5625C4.875 15.082 4.45703 15.5 3.9375 15.5C3.41797 15.5 3 15.082 3 14.5625V13C3 7.47656 7.47656 3 13 3C18.5234 3 23 7.47656 23 13V18.6289C23 20.5273 21.4609 22.0664 19.5586 22.0664L15.25 22.0625C14.9258 22.6211 14.3203 23 13.625 23H12.375C11.3398 23 10.5 22.1602 10.5 21.125C10.5 20.0898 11.3398 19.25 12.375 19.25H13.625C14.3203 19.25 14.9258 19.6289 15.25 20.1875L19.5625 20.1914C20.4258 20.1914 21.125 19.4922 21.125 18.6289V13C21.125 8.51172 17.4883 4.875 13 4.875ZM8.625 11.125H9.25C9.94141 11.125 10.5 11.6836 10.5 12.375V16.75C10.5 17.4414 9.94141 18 9.25 18H8.625C7.24609 18 6.125 16.8789 6.125 15.5V13.625C6.125 12.2461 7.24609 11.125 8.625 11.125ZM17.375 11.125C18.7539 11.125 19.875 12.2461 19.875 13.625V15.5C19.875 16.8789 18.7539 18 17.375 18H16.75C16.0586 18 15.5 17.4414 15.5 16.75V12.375C15.5 11.6836 16.0586 11.125 16.75 11.125H17.375Z" fill="currentColor"/>
</svg>
