<svg width="40" height="40" viewBox="0 0 40 40" fill="none" xmlns="http://www.w3.org/2000/svg">
<g clip-path="url(#clip0_3595_33918)">
<path d="M22.3237 12.4927C22.3237 13.0724 22.3237 13.4202 22.3237 13.7681C22.3237 17.5362 22.3624 21.3043 22.2851 25.0724C22.2658 25.6908 21.9566 26.5217 21.4928 26.8888C20.3527 27.7971 18.7489 26.9661 18.6136 25.4589C18.5363 24.628 18.5943 23.7777 18.5943 22.9468C18.5943 19.855 18.5943 16.7632 18.5943 13.6714C18.5943 13.3623 18.575 13.0531 18.5556 12.57C18.2078 12.8985 17.9759 13.0917 17.7634 13.3236C16.6039 14.483 15.4638 15.6811 14.3044 16.8212C13.3769 17.7487 12.2754 17.826 11.4638 17.0531C10.6522 16.2801 10.6909 15.0628 11.5798 14.1352C12.2754 13.4202 12.9904 12.7246 13.6861 12.0096C15.4445 10.2512 17.1836 8.47338 18.9614 6.73425C19.9663 5.74874 21.0097 5.74874 22.0146 6.73425C24.488 9.18835 26.9421 11.6425 29.3962 14.1159C30.2465 14.9855 30.3044 16.2222 29.5894 16.9758C28.8165 17.7874 27.6378 17.7294 26.6716 16.7826C25.5122 15.6231 24.3527 14.4444 23.2126 13.285C22.9808 13.0724 22.7489 12.8792 22.3237 12.4927Z" fill="#0068FF"/>
<path opacity="0.4" d="M20.4684 33.9807C18.0143 33.9807 15.5795 33.9807 13.1254 33.9807C9.39594 33.9807 7.01912 31.6039 6.9998 27.8937C6.9998 26.7729 6.98048 25.6328 6.9998 24.5121C7.01912 23.2367 7.69545 22.4638 8.81622 22.4444C9.937 22.4251 10.7099 23.2174 10.7293 24.5314C10.7486 25.6908 10.7293 26.8502 10.7293 28.0097C10.7486 29.4589 11.4249 30.1739 12.8355 30.1739C17.8984 30.1932 22.9612 30.1932 28.0046 30.1739C29.4346 30.1739 30.1496 29.4783 30.1689 28.0483C30.1882 26.8502 30.1689 25.6715 30.1882 24.4734C30.2075 23.2174 30.9418 22.4444 32.0433 22.4638C33.1447 22.4638 33.879 23.256 33.8984 24.4927C33.9177 25.7101 33.937 26.9469 33.8984 28.1642C33.8211 31.5845 31.4249 33.9613 27.9853 34C25.5119 34 22.9805 33.9807 20.4684 33.9807Z" fill="#0068FF"/>
</g>
<defs>
<clipPath id="clip0_3595_33918">
<rect width="26.9565" height="28" fill="white" transform="translate(7 6)"/>
</clipPath>
</defs>
</svg>
